<svg width="30" height="32" viewBox="0 0 30 32" fill="none" xmlns="http://www.w3.org/2000/svg">
<path d="M15 0C23.2845 0 30 6.96768 30 15.5633C30.0031 19.6494 28.4573 23.5729 25.6963 26.4866C22.9354 29.4004 19.1807 31.0706 15.243 31.1368C11.3053 31.203 7.50051 29.6599 4.65 26.8404C1.79949 24.021 0.131983 20.1516 0.00750017 16.0675L0 15.5633L0.00599992 15.1275C0.228 6.73424 6.855 0 15 0ZM15 14.007H13.5L13.3245 14.0179C12.9599 14.0628 12.6239 14.245 12.3801 14.5298C12.1363 14.8147 12.0017 15.1824 12.0017 15.5633C12.0017 15.9442 12.1363 16.3119 12.3801 16.5967C12.6239 16.8816 12.9599 17.0637 13.3245 17.1087L13.5 17.1196V21.7886L13.5105 21.9707C13.55 22.3181 13.7011 22.6416 13.9395 22.8889C14.1779 23.1363 14.4897 23.2931 14.8245 23.334L15 23.3449H16.5L16.6755 23.334C17.0103 23.2931 17.3221 23.1363 17.5605 22.8889C17.7989 22.6416 17.95 22.3181 17.9895 21.9707L18 21.7886L17.9895 21.6065C17.9536 21.289 17.8244 20.9906 17.6194 20.752C17.4143 20.5133 17.1434 20.346 16.8435 20.2727L16.6755 20.2416L16.5 20.2323V15.5633L16.4895 15.3812C16.45 15.0338 16.2989 14.7103 16.0605 14.463C15.8221 14.2156 15.5103 14.0588 15.1755 14.0179L15 14.007ZM15.015 9.33797L14.8245 9.34887C14.4599 9.39386 14.1239 9.57602 13.8801 9.86085C13.6363 10.1457 13.5017 10.5134 13.5017 10.8943C13.5017 11.2752 13.6363 11.6429 13.8801 11.9278C14.1239 12.2126 14.4599 12.3947 14.8245 12.4397L15 12.4506L15.1905 12.4397C15.5551 12.3947 15.8911 12.2126 16.1349 11.9278C16.3787 11.6429 16.5133 11.2752 16.5133 10.8943C16.5133 10.5134 16.3787 10.1457 16.1349 9.86085C15.8911 9.57602 15.5551 9.39386 15.1905 9.34887L15.015 9.33797Z" fill="#A7B1CB"/>
</svg>
