<svg width="21" height="26" viewBox="0 0 21 26" fill="none" xmlns="http://www.w3.org/2000/svg">
<path d="M13 1V6.33333C13 6.68696 13.1405 7.02609 13.3905 7.27614C13.6406 7.52619 13.9797 7.66667 14.3333 7.66667H19.6667M13 1H3.66667C2.95942 1 2.28115 1.28095 1.78105 1.78105C1.28095 2.28115 1 2.95942 1 3.66667V22.3333C1 23.0406 1.28095 23.7189 1.78105 24.219C2.28115 24.719 2.95942 25 3.66667 25H17C17.7072 25 18.3855 24.719 18.8856 24.219C19.3857 23.7189 19.6667 23.0406 19.6667 22.3333V7.66667M13 1L19.6667 7.66667M6.33333 19.6667H14.3333M6.33333 14.3333H14.3333" stroke="#494949" stroke-width="2" stroke-linecap="round" stroke-linejoin="round"/>
</svg>
