<svg width="73" height="106" viewBox="0 0 73 106" fill="none" xmlns="http://www.w3.org/2000/svg">
<path d="M53.066 36.3347C57.4863 36.3347 61.7255 38.0906 64.8511 41.2162C67.9768 44.3418 69.7327 48.5811 69.7327 53.0013C69.7327 57.4216 67.9768 61.6608 64.8511 64.7865C61.7255 67.9121 57.4863 69.668 53.066 69.668C48.6458 69.668 44.4065 67.9121 41.2809 64.7865C38.1553 61.6608 36.3994 57.4216 36.3994 53.0013C36.3994 48.5811 38.1553 44.3418 41.2809 41.2162C44.4065 38.0906 48.6458 36.3347 53.066 36.3347ZM53.066 36.3347C57.4863 36.3347 61.7255 34.5787 64.8511 31.4531C67.9768 28.3275 69.7327 24.0883 69.7327 19.668C69.7327 15.2477 67.9768 11.0085 64.8511 7.8829C61.7255 4.75729 57.4863 3.00134 53.066 3.00134H19.7327C15.3124 3.00134 11.0732 4.75729 7.94759 7.8829C4.82199 11.0085 3.06604 15.2477 3.06604 19.668C3.06604 24.0883 4.82199 28.3275 7.94759 31.4531C11.0732 34.5787 15.3124 36.3347 19.7327 36.3347M53.066 36.3347H19.7327M19.7327 36.3347C15.3124 36.3347 11.0732 38.0906 7.9476 41.2162C4.82199 44.3418 3.06605 48.5811 3.06605 53.0013C3.06605 57.4216 4.82199 61.6608 7.9476 64.7865C11.0732 67.9121 15.3124 69.668 19.7327 69.668M19.7327 69.668H36.3994M19.7327 69.668C16.4364 69.668 13.214 70.6455 10.4732 72.4768C7.73239 74.3082 5.59618 76.9112 4.33472 79.9566C3.07326 83.002 2.74321 86.3532 3.38629 89.5862C4.02938 92.8192 5.61672 95.7889 7.9476 98.1198C10.2785 100.451 13.2482 102.038 16.4812 102.681C19.7142 103.324 23.0653 102.994 26.1108 101.733C29.1562 100.471 31.7592 98.335 33.5905 95.5942C35.4219 92.8533 36.3994 89.631 36.3994 86.3347V3.00134" stroke="white" stroke-width="6" stroke-linecap="round" stroke-linejoin="round"/>
</svg>
