<svg width="32" height="34" viewBox="0 0 32 34" fill="none" xmlns="http://www.w3.org/2000/svg">
<path d="M12.0433 28.6522C4.84561 30.9957 4.84561 24.4675 2 23.6305M22.0867 32V26.1414C22.0867 24.4675 22.2541 23.7979 21.2497 22.7936C25.9366 22.2914 30.4561 20.4502 30.4561 12.7503C30.4541 10.7499 29.6737 8.82884 28.2801 7.3938C28.9337 5.65625 28.8735 3.73071 28.1127 2.03735C28.1127 2.03735 26.2714 1.53518 22.2541 4.21341C18.8515 3.32723 15.2786 3.32723 11.876 4.21341C7.85862 1.53518 6.01734 2.03735 6.01734 2.03735C5.25652 3.73071 5.19635 5.65625 5.84995 7.3938C4.45636 8.82884 3.67593 10.7499 3.67389 12.7503C3.67389 20.4502 8.1934 22.2914 12.8803 22.7936C11.876 23.7979 11.876 24.8023 12.0433 26.1414V32" stroke="white" stroke-width="3" stroke-linecap="round" stroke-linejoin="round"/>
</svg>
