<svg width="34" height="34" viewBox="0 0 34 34" fill="none" xmlns="http://www.w3.org/2000/svg">
<path d="M25.4375 8.5625V8.58125M2 9.5C2 7.51088 2.79018 5.60322 4.1967 4.1967C5.60322 2.79018 7.51088 2 9.5 2H24.5C26.4891 2 28.3968 2.79018 29.8033 4.1967C31.2098 5.60322 32 7.51088 32 9.5V24.5C32 26.4891 31.2098 28.3968 29.8033 29.8033C28.3968 31.2098 26.4891 32 24.5 32H9.5C7.51088 32 5.60322 31.2098 4.1967 29.8033C2.79018 28.3968 2 26.4891 2 24.5V9.5ZM11.375 17C11.375 18.4918 11.9676 19.9226 13.0225 20.9775C14.0774 22.0324 15.5082 22.625 17 22.625C18.4918 22.625 19.9226 22.0324 20.9775 20.9775C22.0324 19.9226 22.625 18.4918 22.625 17C22.625 15.5082 22.0324 14.0774 20.9775 13.0225C19.9226 11.9676 18.4918 11.375 17 11.375C15.5082 11.375 14.0774 11.9676 13.0225 13.0225C11.9676 14.0774 11.375 15.5082 11.375 17Z" stroke="white" stroke-width="3" stroke-linecap="round" stroke-linejoin="round"/>
</svg>
