<svg width="104" height="106" viewBox="0 0 104 106" fill="none" xmlns="http://www.w3.org/2000/svg">
<path d="M25.085 27.2438H43.2669V75.7286L31.1457 69.668M79.6305 27.2438H64.479C63.6753 27.2438 62.9045 27.563 62.3362 28.1313C61.7679 28.6996 61.4487 29.4704 61.4487 30.2741V48.4559C61.4487 49.2596 61.7679 50.0303 62.3362 50.5986C62.9045 51.1669 63.6753 51.4862 64.479 51.4862H73.1032C73.537 51.4863 73.9657 51.5794 74.3603 51.7594C74.7549 51.9394 75.1063 52.2021 75.3907 52.5296C75.6752 52.8571 75.8859 53.2418 76.0089 53.6578C76.1318 54.0737 76.164 54.5113 76.1032 54.9407L73.5699 72.6983L61.4487 75.7286M100.843 3.00134L88.7214 90.8801L52.3578 103.001L15.9941 90.8801L3.87292 3.00134H100.843Z" stroke="white" stroke-width="6" stroke-linecap="round" stroke-linejoin="round"/>
</svg>
