<svg width="118" height="106" viewBox="0 0 118 106" fill="none" xmlns="http://www.w3.org/2000/svg">
<path d="M28.0476 36.3352C13.398 40.1129 3.84265 46.5849 3.84265 53.9736C3.84265 65.6789 28.3143 75.2231 58.5635 75.2231C62.6745 75.2231 65.5633 75.0064 69.3966 74.6842M47.3804 74.6674C45.086 71.3564 42.9028 68.3732 40.825 64.6677C25.5421 37.4462 21.4478 10.3913 31.7697 4.26366C38.1584 0.391533 48.6971 5.66918 59.4024 16.7856M28.4476 71.8176C24.5477 86.7506 25.3365 98.017 31.5586 101.789C41.4639 107.789 61.4856 90.9116 76.2408 63.9901C78.2408 60.2679 80.0352 56.6069 81.6185 53.0014M59.3968 89.2226C70.1076 100.333 80.6018 105.611 87.0517 101.739C97.3292 95.6169 93.2793 68.562 77.9797 41.3349C75.8464 37.5739 73.6631 34.6462 71.4243 31.3352M90.8405 69.6677C105.351 65.8511 114.951 59.3902 114.951 52.0237C114.951 40.3018 90.4627 30.7798 60.2579 30.7798C56.108 30.7798 53.2247 30.9409 49.3971 31.2631M37.1751 53.0015C38.7584 49.3349 40.5473 45.735 42.5528 42.0128C57.258 15.1024 77.2908 -1.81939 87.2517 4.23046C93.4182 8.00259 94.2626 19.2634 90.3627 34.1908M60.8412 53.0846H60.7857C60.7301 53.8068 60.119 54.4179 59.3412 54.4179C58.9693 54.3995 58.6183 54.2398 58.3602 53.9713C58.1021 53.7028 57.9562 53.3459 57.9524 52.9735C57.9524 52.1957 58.5635 51.5846 59.2857 51.5846H59.2301C59.9523 51.5291 60.619 52.1957 60.619 52.9179" stroke="white" stroke-width="6" stroke-linecap="round" stroke-linejoin="round"/>
</svg>
