<svg
  width="91"
  height="106"
  viewBox="0 0 91 106"
  fill="none"
  xmlns="http://www.w3.org/2000/svg"
>
  <path
    d="M3.66325 81.0569L37.906 15.8008H37.7946C39.9104 11.6806 44.9216 10.1216 48.9862 12.2931C50.4338 13.0726 51.6588 14.2975 52.4383 15.7452L58.3403 26.9367M64.5763 22.0369C67.8057 18.7518 73.0953 18.7518 76.3247 21.9812C77.5496 23.2062 78.3291 24.7652 78.6075 26.4912L86.9594 77.215C87.5162 80.6672 85.8458 84.1193 82.7278 85.7896L48.9305 101.937C46.3692 103.329 43.3069 103.384 40.8013 101.937L7.2824 85.6783C4.22004 83.9522 2.54966 80.5558 3.10646 77.1037L14.0196 10.0659C14.6877 5.50017 18.975 2.38213 23.4851 3.10596C26.0463 3.49572 28.3292 5.11042 29.5541 7.39326L36.4583 17.1928M3.88597 81.7808L64.7434 22.3153"
    stroke="white"
    stroke-width="6"
    stroke-linecap="round"
    stroke-linejoin="round"></path>
</svg>
