<svg width="97" height="106" viewBox="0 0 97 106" fill="none" xmlns="http://www.w3.org/2000/svg">
<path d="M33.7794 37.9805V78.2632C33.7791 80.0191 33.3171 81.7442 32.4398 83.2653C31.5625 84.7864 30.3007 86.0502 28.7809 86.9298C27.2611 87.8094 25.5367 88.274 23.7807 88.2769C22.0247 88.2799 20.2988 87.8211 18.7761 86.9467L10.9239 82.4397C8.72667 81.0973 6.91134 79.2129 5.65207 76.967C4.3928 74.7212 3.73186 72.1895 3.73267 69.6147V36.388C3.73272 33.8141 4.39407 31.2833 5.6533 29.0385C6.91252 26.7936 8.72739 24.9099 10.9239 23.568L40.9706 5.20447C43.329 3.76368 46.0391 3.00134 48.8028 3.00134C51.5665 3.00134 54.2766 3.76368 56.635 5.20447L86.6817 23.568C88.8789 24.9104 90.6942 26.7948 91.9535 29.0407C93.2128 31.2865 93.8737 33.8182 93.8729 36.393V69.6147C93.8729 72.1886 93.2115 74.7194 91.9523 76.9642C90.6931 79.2091 88.8782 81.0928 86.6817 82.4346L56.635 100.798C54.2766 102.239 51.5665 103.001 48.8028 103.001C46.0391 103.001 43.329 102.239 40.9706 100.798M73.8418 37.9807H56.3145C54.3223 37.9807 52.4116 38.7721 51.0029 40.1808C49.5942 41.5895 48.8028 43.5002 48.8028 45.4924C48.8028 47.4846 49.5942 49.3952 51.0029 50.804C52.4116 52.2127 54.3223 53.0041 56.3145 53.0041H66.3301C68.3223 53.0041 70.2329 53.7955 71.6416 55.2042C73.0503 56.6129 73.8418 58.5235 73.8418 60.5158C73.8418 62.508 73.0503 64.4186 71.6416 65.8273C70.2329 67.236 68.3223 68.0274 66.3301 68.0274H48.8028" stroke="white" stroke-width="6" stroke-linecap="round" stroke-linejoin="round"/>
</svg>
