<svg width="157" height="106" viewBox="0 0 157 106" fill="none" xmlns="http://www.w3.org/2000/svg">
<path d="M75.2907 3.00134C54.5407 3.00134 41.5907 13.1847 36.399 33.5597C44.174 23.368 53.2574 19.5597 63.624 22.1013C69.5407 23.5513 73.7657 27.768 78.4407 32.4347C86.074 40.0347 95.1074 48.8347 114.174 48.8347C134.924 48.8347 147.874 38.6513 153.066 18.2763C145.291 28.468 136.207 32.2763 125.841 29.7347C119.924 28.2847 115.699 24.068 111.024 19.4013C103.391 11.8013 94.5657 3.00134 75.2907 3.00134ZM41.9574 57.168C21.2074 57.168 8.25737 67.3513 3.0657 87.7263C10.8407 77.5347 19.924 73.7263 30.2907 76.268C36.2074 77.718 40.4324 81.9347 45.1074 86.6013C52.7407 94.2013 61.5657 103.001 80.8407 103.001C101.591 103.001 114.541 92.818 119.732 72.443C111.957 82.6347 102.874 86.443 92.5074 83.9013C86.5907 82.4513 82.3657 78.2347 77.6907 73.568C70.0574 65.968 61.2324 57.168 41.9574 57.168Z" stroke="white" stroke-width="6" stroke-linecap="round" stroke-linejoin="round"/>
</svg>
