<svg width="106" height="106" viewBox="0 0 106 106" fill="none" xmlns="http://www.w3.org/2000/svg">
<path d="M69.6667 83.5569C71.4444 85.3347 73.8556 86.3347 76.3722 86.3347H79.3889C83.2222 86.3347 86.3333 83.2236 86.3333 79.3902V78.0013C86.3333 75.7912 85.4554 73.6716 83.8925 72.1088C82.3297 70.546 80.2101 69.668 78 69.668C75.7899 69.668 73.6702 68.79 72.1074 67.2272C70.5446 65.6644 69.6667 63.5448 69.6667 61.3347V59.9458C69.6667 56.1125 72.7778 53.0013 76.6111 53.0013H79.6278C82.1444 53.0013 84.5556 54.0013 86.3333 55.7791M36.3333 53.0013H58.5556M47.4444 53.0013V86.3347M103 91.8902V14.1125C103 11.1656 101.829 8.33945 99.7456 6.25571C97.6619 4.17197 94.8357 3.00134 91.8889 3.00134H14.1111C11.1643 3.00134 8.33811 4.17197 6.25437 6.25571C4.17063 8.33945 3 11.1656 3 14.1125V91.8902C3 94.8371 4.17063 97.6632 6.25437 99.747C8.33811 101.831 11.1643 103.001 14.1111 103.001H91.8889C94.8357 103.001 97.6619 101.831 99.7456 99.747C101.829 97.6632 103 94.8371 103 91.8902Z" stroke="white" stroke-width="6" stroke-linecap="round" stroke-linejoin="round"/>
</svg>
